<svg width="40" height="40" viewBox="0 0 40 40" fill="none" xmlns="http://www.w3.org/2000/svg">
<circle cx="20" cy="20" r="20" fill="#FAF1CE"/>
<path fill-rule="evenodd" clip-rule="evenodd" d="M9.74771 16.3474L13.3964 15.0635L16.3694 16.3474L19.0046 19.2529V21.0772L16.3694 23.1043L14.3423 24.3206H11.3693L8.93675 23.1043L7.7207 20.4016V18.5772L8.93675 17.4961L9.74771 16.3474ZM30.0858 16.3474L26.4371 15.0635L23.4641 16.3474L20.8289 19.2529V21.0772L23.4641 23.1043L25.4912 24.3206H28.4642L30.8967 23.1043L32.1128 20.4016V18.5772L30.8967 17.4961L30.0858 16.3474Z" fill="url(#paint0_linear_1640_1152)"/>
<path fill-rule="evenodd" clip-rule="evenodd" d="M8.78972 15.7883C6.46788 18.1102 6.46788 21.8746 8.78972 24.1965C11.1116 26.5183 14.876 26.5183 17.1979 24.1965L19.9999 21.3945L22.8019 24.1965C25.1237 26.5183 28.8882 26.5183 31.21 24.1965C33.5319 21.8746 33.5319 18.1102 31.21 15.7883C28.8882 13.4665 25.1237 13.4665 22.8019 15.7883L19.9999 18.5903L17.1979 15.7883C14.876 13.4665 11.1116 13.4665 8.78972 15.7883ZM10.2039 22.7822C8.66314 21.2415 8.66314 18.7433 10.2039 17.2025C11.7447 15.6617 14.2429 15.6617 15.7837 17.2025L18.5735 19.9924L15.7837 22.7822C14.2429 24.323 11.7447 24.323 10.2039 22.7822ZM24.2161 22.7822C25.7569 24.323 28.255 24.323 29.7958 22.7822C31.3366 21.2415 31.3366 18.7433 29.7958 17.2025C28.255 15.6617 25.7569 15.6617 24.2161 17.2025L21.4262 19.9924L24.2161 22.7822Z" fill="#4D2A00"/>
<defs>
<linearGradient id="paint0_linear_1640_1152" x1="7.7207" y1="15.0635" x2="32.4857" y2="23.1834" gradientUnits="userSpaceOnUse">
<stop stop-color="#FAF1CE"/>
<stop offset="1" stop-color="#F3DCA9"/>
</linearGradient>
</defs>
</svg>
