<svg width="24" height="24" viewBox="0 0 24 24" fill="none" xmlns="http://www.w3.org/2000/svg">
<g id="Frame 9072" clip-path="url(#clip0_1640_1174)">
<circle id="Ellipse 180" cx="12" cy="12" r="11.25" stroke="white" stroke-opacity="0.5" stroke-width="1.5"/>
<path id="Union" d="M15.7123 7.22706C16.0052 6.93416 16.48 6.93416 16.7729 7.22706C17.0658 7.51995 17.0658 7.99482 16.7729 8.28772L13.0607 12L16.773 15.7123C17.0659 16.0052 17.0659 16.4801 16.773 16.773C16.4801 17.0659 16.0052 17.0659 15.7123 16.773L12 13.0607L8.28765 16.773C7.99476 17.0659 7.51989 17.0659 7.22699 16.773C6.9341 16.4801 6.9341 16.0052 7.22699 15.7123L10.9393 12L7.22705 8.28772C6.93415 7.99482 6.93415 7.51995 7.22705 7.22706C7.51994 6.93416 7.99481 6.93416 8.28771 7.22706L12 10.9393L15.7123 7.22706Z" fill="white" fill-opacity="0.5"/>
</g>
<defs>
<clipPath id="clip0_1640_1174">
<rect width="24" height="24" fill="white"/>
</clipPath>
</defs>
</svg>
