<svg width="12" height="12" viewBox="0 0 12 12" fill="none" xmlns="http://www.w3.org/2000/svg">
<g id="Edit / Copy" clip-path="url(#clip0_152_4420)">
<path id="Vector" d="M4.5 4.5V3.1001C4.5 2.54005 4.5 2.25981 4.60899 2.0459C4.70487 1.85774 4.85774 1.70487 5.0459 1.60899C5.25981 1.5 5.54004 1.5 6.1001 1.5H8.9001C9.46015 1.5 9.74003 1.5 9.95394 1.60899C10.1421 1.70487 10.2952 1.85774 10.3911 2.0459C10.5001 2.25981 10.5001 2.53984 10.5001 3.09989V5.8999C10.5001 6.45996 10.5001 6.73998 10.3911 6.95389C10.2952 7.14205 10.142 7.29524 9.95379 7.39111C9.74009 7.5 9.4605 7.5 8.90154 7.5H7.5M4.5 4.5H3.1001C2.54005 4.5 2.25981 4.5 2.0459 4.60899C1.85774 4.70487 1.70487 4.85774 1.60899 5.0459C1.5 5.25981 1.5 5.54005 1.5 6.1001V8.9001C1.5 9.46015 1.5 9.74003 1.60899 9.95394C1.70487 10.1421 1.85774 10.2952 2.0459 10.3911C2.2596 10.5 2.5395 10.5 3.09845 10.5H5.90178C6.46073 10.5 6.74024 10.5 6.95394 10.3911C7.1421 10.2952 7.29524 10.142 7.39111 9.95379C7.5 9.74009 7.5 9.4605 7.5 8.90155V7.5M4.5 4.5H5.9001C6.46015 4.5 6.74003 4.5 6.95394 4.60899C7.1421 4.70487 7.29524 4.85774 7.39111 5.0459C7.5 5.2596 7.5 5.5395 7.5 6.09847L7.5 7.5" stroke="#A0ACBB" stroke-width="1.125" stroke-linecap="round" stroke-linejoin="round"/>
</g>
<defs>
<clipPath id="clip0_152_4420">
<rect width="12" height="12" fill="white"/>
</clipPath>
</defs>
</svg>
