<svg width="20" height="16" viewBox="0 0 20 16" fill="none" xmlns="http://www.w3.org/2000/svg">
<path fill-rule="evenodd" clip-rule="evenodd" d="M4 0H16C17.0766 0 17.9545 0.850592 17.9983 1.91638H12.8997C11.7951 1.91638 10.8997 2.81181 10.8997 3.91638V13H2V2C2 0.89543 2.89543 0 4 0Z" fill="#333333"/>
<path d="M12 5C12 3.89543 12.8954 3 14 3H18C19.1046 3 20 3.89543 20 5V14C20 15.1046 19.1046 16 18 16H14C12.8954 16 12 15.1046 12 14V5Z" fill="url(#paint0_linear_1474_1850)"/>
<path d="M11 13H1.5C0.671573 13 0 13.6716 0 14.5C0 15.3284 0.671573 16 1.5 16H11V13Z" fill="url(#paint1_linear_1474_1850)"/>
<defs>
<linearGradient id="paint0_linear_1474_1850" x1="11.7987" y1="9.5" x2="20" y2="9.5" gradientUnits="userSpaceOnUse">
<stop stop-color="#FAE4B2"/>
<stop offset="1" stop-color="#FDD07E"/>
</linearGradient>
<linearGradient id="paint1_linear_1474_1850" x1="-0.276804" y1="14.5" x2="11" y2="14.5" gradientUnits="userSpaceOnUse">
<stop stop-color="#FAE4B2"/>
<stop offset="1" stop-color="#FDD07E"/>
</linearGradient>
</defs>
</svg>
