<?xml version="1.0" encoding="UTF-8"?>
<svg width="34px" height="34px" viewBox="0 0 34 34" version="1.1" xmlns="http://www.w3.org/2000/svg" xmlns:xlink="http://www.w3.org/1999/xlink">
    <title>home_function_icon_format_conversion</title>
    <defs>
        <linearGradient x1="50%" y1="0%" x2="50%" y2="100%" id="linearGradient-1">
            <stop stop-color="#59EDAE" offset="0%"></stop>
            <stop stop-color="#14B067" offset="100%"></stop>
        </linearGradient>
        <path d="M7.46666667,11.6148148 C9.29943384,11.6148148 10.7851852,13.1005662 10.7851852,14.9333333 L10.7851852,19.0814815 C10.7851852,20.9142487 9.29943384,22.4 7.46666667,22.4 L3.31851852,22.4 C1.48575135,22.4 1.11262766e-15,20.9142487 0,19.0814815 L0,14.9333333 C1.4776413e-15,13.1005662 1.48575135,11.6148148 3.31851852,11.6148148 L7.46666667,11.6148148 Z M19.0814815,0 C20.9142487,5.51504552e-16 22.4,1.48575135 22.4,3.31851852 L22.4,7.46666667 C22.4,9.29943384 20.9142487,10.7851852 19.0814815,10.7851852 L14.9333333,10.7851852 C13.1005662,10.7851852 11.6148148,9.29943384 11.6148148,7.46666667 L11.6148148,3.31851852 C11.6148148,1.48575135 13.1005662,1.22485229e-15 14.9333333,0 L19.0814815,0 Z" id="path-2"></path>
        <filter x="-35.7%" y="-31.2%" width="171.4%" height="171.4%" filterUnits="objectBoundingBox" id="filter-3">
            <feOffset dx="0" dy="1" in="SourceAlpha" result="shadowOffsetOuter1"></feOffset>
            <feGaussianBlur stdDeviation="2.5" in="shadowOffsetOuter1" result="shadowBlurOuter1"></feGaussianBlur>
            <feColorMatrix values="0 0 0 0 0.247383796   0 0 0 0 0.806598166   0 0 0 0 0.512882878  0 0 0 0.384204784 0" type="matrix" in="shadowBlurOuter1"></feColorMatrix>
        </filter>
    </defs>
    <g id="页面-1" stroke="none" stroke-width="1" fill="none" fill-rule="evenodd">
        <g id="0" transform="translate(-125.000000, -110.000000)">
            <g id="home_function_icon_format_conversion" transform="translate(126.000000, 110.000000)">
                <g id="编组-3备份">
                    <rect id="矩形备份-6" x="0" y="0" width="32" height="32"></rect>
                </g>
                <g id="编组" transform="translate(4.800000, 4.800000)">
                    <g id="形状结合">
                        <use fill="black" fill-opacity="1" filter="url(#filter-3)" xlink:href="#path-2"></use>
                        <use fill="url(#linearGradient-1)" fill-rule="evenodd" xlink:href="#path-2"></use>
                    </g>
                    <path d="M18.3997583,12.1334964 L21.6704483,15.1525948 C22.0071292,15.4633772 22.0281241,15.9882499 21.7173417,16.3249308 C21.5602873,16.4950731 21.339275,16.5918392 21.107727,16.5918392 L19.9111111,16.5918392 C19.9111111,19.7991817 17.3110463,22.3992466 14.1037037,22.3992466 C13.1873201,22.3992466 12.4444444,21.6563709 12.4444444,20.7399873 C12.4444444,19.8652575 13.1213208,19.1486207 13.9798712,19.0852792 L14.1037037,19.080728 C15.4291871,19.080728 16.5126668,18.044587 16.5883675,16.7380803 L16.5925926,16.5918392 L14.5663471,16.5918392 C14.1081553,16.5918392 13.7367175,16.2204013 13.7367175,15.7622095 C13.7367175,15.5306615 13.8334835,15.3096492 14.0036258,15.1525948 L17.2743158,12.1334964 C17.5921151,11.8401432 18.081959,11.8401432 18.3997583,12.1334964 Z M8.2962963,0 C9.21267988,0 9.95555556,0.742875674 9.95555556,1.65925926 C9.95555556,2.53398904 9.27867917,3.25062588 8.42012876,3.31396739 L8.2962963,3.31851852 C6.9708129,3.31851852 5.8873332,4.35465953 5.81163246,5.66116628 L5.80740741,5.80740741 L7.83365292,5.80740741 C8.29184471,5.80740741 8.66328255,6.17884524 8.66328255,6.63703704 C8.66328255,6.86858505 8.56651646,7.08959734 8.39637419,7.24665175 L5.12568423,10.2657502 C4.8078849,10.5591034 4.31804102,10.5591034 4.00024169,10.2657502 L0.729551738,7.24665175 C0.39287083,6.93586937 0.371875923,6.41099667 0.682658299,6.07431577 C0.839712706,5.90417349 1.060725,5.80740741 1.29227301,5.80740741 L2.48888889,5.80740741 C2.48888889,2.60006486 5.08895375,0 8.2962963,0 Z" id="形状结合" fill="#A2FFCA" fill-rule="nonzero"></path>
                </g>
            </g>
        </g>
    </g>
</svg>