<?xml version="1.0" encoding="UTF-8"?>
<svg width="16px" height="16px" viewBox="0 0 16 16" version="1.1" xmlns="http://www.w3.org/2000/svg" xmlns:xlink="http://www.w3.org/1999/xlink">
    <title>home_icon_rich_functions</title>
    <g id="页面-1" stroke="none" stroke-width="1" fill="none" fill-rule="evenodd">
        <g id="0" transform="translate(-28.000000, -537.000000)">
            <g id="home_icon_rich_functions" transform="translate(28.000000, 537.000000)">
                <g id="编组-6" transform="translate(0.500000, 0.000000)" fill-rule="nonzero">
                    <path d="M10.3302515,6.75648486 L12.7464854,8.16903533 C13.0836683,8.36593861 13.2888919,8.72629294 13.2846771,9.11393652 L13.2574627,11.8929447 C13.2535309,12.2804192 13.0414469,12.6364677 12.7009144,12.827283 L10.2575318,14.1927804 C9.91654329,14.3830006 9.49907288,14.3789758 9.16188802,14.1822175 L6.7456541,12.7696671 C6.40847121,12.5727638 6.20324762,12.2124094 6.20746249,11.8247659 L6.23467686,9.04575767 C6.23860869,8.65828313 6.45069263,8.30223469 6.79122512,8.1114194 L9.23460774,6.74592194 C9.57590563,6.55482912 9.99283202,6.55963045 10.3302515,6.75648486 L10.3302515,6.75648486 Z" id="路径" fill-opacity="0.504829887" fill="#165DFF"></path>
                    <path d="M13.2322532,2.75121771 L9.37229041,0.493633655 C8.26985944,-0.151664722 6.89109354,-0.165108438 5.77605782,0.458103834 L1.87246322,2.64078718 C0.757427501,3.26399945 0.0564093938,4.43936435 0.0438046423,5.707875 L0.000172809872,10.1471821 C-0.0124319417,11.4156928 0.665315855,12.6045014 1.76774682,13.2488395 L5.62770959,15.5064236 C6.19007543,15.8348343 6.8232218,16 7.45636817,16 C8.06624422,16 8.67612028,15.8473178 9.22394218,15.5419534 L13.1275368,13.3602303 C14.2425725,12.737018 14.9435906,11.5616531 14.9561954,10.2931425 L14.9998272,5.85383535 C15.0124319,4.5853247 14.3346841,3.39651608 13.2322532,2.75121771 Z M13.5987606,10.2796988 C13.5910038,11.069037 13.1546855,11.8007592 12.4604545,12.1887065 L8.55685994,14.3704295 C7.86262901,14.7583768 7.0045363,14.7506947 6.31806214,14.3483434 L2.45809937,12.0907594 C1.77162521,11.6893684 1.34985083,10.9490038 1.35750242,10.1596656 L1.40123943,5.72035845 C1.4089962,4.93102026 1.84531452,4.19929799 2.53954546,3.81135075 L6.44314006,1.62962767 C6.78346835,1.43949511 7.16355009,1.34442884 7.54363183,1.34442884 C7.93825752,1.34442884 8.3328832,1.44717724 8.68193786,1.65171378 L12.5419006,3.90929783 C13.2283748,4.31068878 13.6501492,5.05105344 13.6424976,5.84039163 L13.5987606,10.2796988 Z" id="形状" fill="#34332E"></path>
                    <path d="M10.5018701,5.30264298 L7.4990304,7.05416715 L4.38662636,5.29784166 C4.06084201,5.11443096 3.6468244,5.22678201 3.46066192,5.5494312 C3.27449943,5.87208039 3.38891179,6.28211373 3.71469614,6.4664847 L6.769894,8.19016117 L6.769894,11.5818187 C6.769894,11.9534414 7.07337764,12.2540045 7.4486114,12.2540045 C7.82384516,12.2540045 8.12732879,11.9534414 8.12732879,11.5818187 L8.12732879,8.24777709 L11.1902834,6.46072311 C11.5131574,6.27243118 11.6208081,5.86058871 11.4307433,5.54078881 C11.2407024,5.22006016 10.8247456,5.11443096 10.5018701,5.30264298 L10.5018701,5.30264298 Z" id="路径" fill="#34332E"></path>
                </g>
                <rect id="矩形备份-9" x="0" y="0" width="16" height="16"></rect>
            </g>
        </g>
    </g>
</svg>