<?xml version="1.0" encoding="UTF-8"?>
<svg width="16px" height="16px" viewBox="0 0 16 16" version="1.1" xmlns="http://www.w3.org/2000/svg" xmlns:xlink="http://www.w3.org/1999/xlink">
    <title>home_icon_multi_terminal_general_purpose</title>
    <g id="页面-1" stroke="none" stroke-width="1" fill="none" fill-rule="evenodd">
        <g id="0" transform="translate(-28.000000, -592.000000)">
            <g id="home_icon_multi_terminal_general_purpose" transform="translate(28.000000, 592.000000)">
                <rect id="矩形备份-10" x="0" y="0" width="16" height="16"></rect>
                <g id="shouji" transform="translate(1.000000, 0.000000)" fill-rule="nonzero">
                    <path d="M7.42371926,15.3270848 L9.70953421,15.3270848 C11.6974139,15.3270848 13.3084349,13.7572699 13.3084349,11.8202355 L13.3084349,8.9901466 C13.3084349,8.16149964 12.6188429,7.48954578 11.7684448,7.48954578 L9.48361638,7.48954578 C7.49573673,7.48954578 5.88471566,9.05936073 5.88471566,10.9963951 L5.88471566,13.826484 C5.88471566,14.6560923 6.57430766,15.3270848 7.42371926,15.3270848 Z" id="路径" fill-opacity="0.497040435" fill="#165DFF"></path>
                    <path d="M10.5875555,16 L3.41145797,16 C1.53012473,16 0,14.5090123 0,12.6757991 L0,3.32420091 C0,1.49098774 1.53012473,0 3.41145797,0 L10.588542,0 C12.4698753,0 14,1.49098774 14,3.32420091 L14,12.6757991 C14,14.5090123 12.4688887,16 10.5875555,16 L10.5875555,16 Z M3.41145797,1.34583033 C2.2917342,1.34583033 1.38115707,2.23311704 1.38115707,3.32420091 L1.38115707,12.6757991 C1.38115707,13.766883 2.2917342,14.6541697 3.41145797,14.6541697 L10.588542,14.6541697 C11.7082658,14.6541697 12.6188429,13.766883 12.6188429,12.6757991 L12.6188429,3.32420091 C12.6188429,2.23311704 11.7082658,1.34583033 10.588542,1.34583033 L3.41145797,1.34583033 Z" id="形状" fill="#34332E"></path>
                    <path d="M10.1071101,10.9444845 L3.89190332,10.9444845 C3.30787119,10.9444845 2.83334508,10.4811343 2.83334508,9.91300168 L2.83334508,3.68469118 C2.83334508,3.11559721 3.30885773,2.65320836 3.89190332,2.65320836 L10.1071101,2.65320836 C10.6911423,2.65320836 11.1656684,3.11655852 11.1656684,3.68469118 L11.1656684,9.91300168 C11.1656684,10.4811343 10.6911423,10.9444845 10.1071101,10.9444845 L10.1071101,10.9444845 Z M4.21450215,9.59865417 L9.78549785,9.59865417 L9.78549785,3.99807739 L4.21450215,3.99807739 L4.21450215,9.59865417 Z" id="形状" fill="#34332E"></path>
                    <path d="M5.99816785,12.7998077 C5.99816785,13.1484014 6.18902195,13.4705153 6.49883728,13.6448121 C6.80865261,13.819109 7.19036085,13.819109 7.50017618,13.6448121 C7.80999151,13.4705153 8.00084561,13.1484014 8.00084561,12.7998077 C8.00084561,12.2609286 7.55253092,11.8240807 6.99950673,11.8240807 C6.44648254,11.8240807 5.99816785,12.2609286 5.99816785,12.7998077 L5.99816785,12.7998077 Z" id="路径" fill="#34332E"></path>
                </g>
            </g>
        </g>
    </g>
</svg>