<?xml version="1.0" encoding="UTF-8"?>
<svg width="16px" height="16px" viewBox="0 0 16 16" version="1.1" xmlns="http://www.w3.org/2000/svg" xmlns:xlink="http://www.w3.org/1999/xlink">
    <title>home_icon_real_time_processing</title>
    <g id="页面-1" stroke="none" stroke-width="1" fill="none" fill-rule="evenodd">
        <g id="0" transform="translate(-28.000000, -427.000000)">
            <g id="home_icon_real_time_processing" transform="translate(28.000000, 427.000000)">
                <path d="M6.08661025,10.7944251 C6.08661025,12.7176626 7.64570228,14.2767546 9.56893977,14.2767546 C11.4921773,14.2767546 13.0512693,12.7176626 13.0512693,10.7944251 C13.0512693,9.55030856 12.3875411,8.40069747 11.3101046,7.7786392 C10.232668,7.15658093 8.9052115,7.15658093 7.82777499,7.7786392 C6.75033848,8.40069747 6.08661025,9.55030856 6.08661025,10.7944251 L6.08661025,10.7944251 Z" id="路径" fill="#165DFF" fill-rule="nonzero" opacity="0.503160023"></path>
                <path d="M8,16 C3.58885017,16 0,12.4111498 0,8 C0,3.58885017 3.58885017,0 8,0 C12.4111498,0 16,3.58885017 16,8 C16,12.4111498 12.4111498,16 8,16 Z M8,1.39372822 C4.35739174,1.39372822 1.39372822,4.35739174 1.39372822,8 C1.39372822,11.6426083 4.35739174,14.6062718 8,14.6062718 C11.6426083,14.6062718 14.6062718,11.6426083 14.6062718,8 C14.6062718,4.35739174 11.6426083,1.39372822 8,1.39372822 Z" id="形状" fill="#34332E" fill-rule="nonzero"></path>
                <path d="M11.261324,9.2643106 L7.67745147,9.2643106 C7.29218517,9.2643106 6.98058736,8.95271279 6.98058736,8.56744649 L6.98058736,4.83125933 C6.98058736,4.44599303 7.29218517,4.13439522 7.67745147,4.13439522 C8.06271777,4.13439522 8.37431558,4.44599303 8.37431558,4.83125933 L8.37431558,7.87058238 L11.261324,7.87058238 C11.6465903,7.87058238 11.9581882,8.18218019 11.9581882,8.56744649 C11.9581882,8.95271279 11.6465903,9.2643106 11.261324,9.2643106 L11.261324,9.2643106 Z" id="路径" fill="#34332E" fill-rule="nonzero"></path>
                <rect id="矩形" x="0" y="0" width="16" height="16"></rect>
            </g>
        </g>
    </g>
</svg>