<?xml version="1.0" encoding="UTF-8"?>
<svg width="16px" height="16px" viewBox="0 0 16 16" version="1.1" xmlns="http://www.w3.org/2000/svg" xmlns:xlink="http://www.w3.org/1999/xlink">
    <title>home_icon_privacy_security</title>
    <g id="页面-1" stroke="none" stroke-width="1" fill="none" fill-rule="evenodd">
        <g id="0" transform="translate(-28.000000, -482.000000)">
            <g id="home_icon_privacy_security" transform="translate(28.000000, 482.000000)">
                <g id="编组-4" transform="translate(0.500000, 0.000000)" fill-rule="nonzero">
                    <path d="M5.50615231,10.2179037 C5.50615231,12.1326288 7.09407487,13.6848202 9.05287662,13.6848202 C11.0116784,13.6848202 12.5996009,12.1326288 12.5996009,10.2179037 C12.5996009,8.30317856 11.0116784,6.75098716 9.05287662,6.75098716 C7.09407487,6.75098716 5.50615231,8.30317856 5.50615231,10.2179037 Z" id="路径" fill="#165DFF" opacity="0.501680647"></path>
                    <path d="M7.50448952,16 C7.20618557,16 6.90788161,15.9366093 6.63052877,15.8098304 C4.63717991,14.8999476 0,12.4063033 0,8.90720445 L0,3.81069087 C0,2.80523632 0.740272697,1.96264395 1.75989358,1.80758354 C2.95111407,1.62619213 4.73994014,1.21074728 6.49185234,0.258929973 C7.12437645,-0.0843484003 7.87861656,-0.0862988456 8.510143,0.253078637 C10.341869,1.24000396 12.0927835,1.64862225 13.2401064,1.81831099 C14.2597273,1.9694705 15,2.81206287 15,3.82141832 L15,8.90720445 C15,12.4492131 10.3628201,14.9175016 8.36847356,15.8137313 C8.0978162,15.9366514 7.80293274,16.0002257 7.50448952,16 Z M7.50748254,1.36580768 C7.39175258,1.36580768 7.27702029,1.39408914 7.17126704,1.45162728 C5.23777852,2.50194207 3.27835052,2.95834627 1.97439308,3.15631647 C1.64017293,3.20702805 1.39674094,3.48204084 1.39674094,3.81069087 L1.39674094,8.90817967 C1.39674094,11.6982917 5.85433987,13.9500808 7.22115065,14.5732481 C7.39973395,14.6551668 7.60525441,14.6551668 7.78483538,14.5751985 C9.14965081,13.9617835 13.6032591,11.7382758 13.6032591,8.90817967 L13.6032591,3.82141832 C13.6032591,3.49179306 13.3628201,3.2177555 13.0305953,3.16801914 C11.7715331,2.98175162 9.84802128,2.53217397 7.83571666,1.44870161 C7.73509935,1.39472112 7.62225734,1.36622342 7.50748254,1.36580768 L7.50748254,1.36580768 Z" id="形状" fill="#34332E"></path>
                    <path d="M8.8892584,9.89705544 L8.19587629,9.89705544 C8.19587629,9.57620719 8.19487862,9.28168995 8.19587629,9.04568606 C9.44995012,8.74824316 10.3847689,7.64234067 10.3847689,6.32579009 C10.3847689,4.78201263 9.09976721,3.52690108 7.52144995,3.52690108 C5.94213502,3.52690108 4.65813103,4.78298785 4.65813103,6.32579009 C4.65813103,7.62478666 5.56900565,8.7199617 6.79813768,9.03398339 C6.79614233,9.54890095 6.79913535,10.4314775 6.80512138,11.9830567 C6.80611906,12.3594926 7.11938809,12.6627869 7.50349185,12.6627869 L7.50648487,12.6627869 C7.89258397,12.6608364 8.20385767,12.3546165 8.20186232,11.9772054 L8.1988693,11.2613919 L8.8892584,11.2613919 C9.2753575,11.2613919 9.58762887,10.9561472 9.58762887,10.5787361 C9.58762887,10.2013249 9.2753575,9.89705544 8.8892584,9.89705544 L8.8892584,9.89705544 Z M6.05387429,6.32579009 C6.05387429,5.53488452 6.71233788,4.89221279 7.52045228,4.89221279 C8.32956435,4.89221279 8.98703026,5.53585974 8.98703026,6.32579009 C8.98703026,7.11572044 8.32856668,7.75936739 7.52045228,7.75936739 C6.71233788,7.75936739 6.05387429,7.11669566 6.05387429,6.32579009 L6.05387429,6.32579009 Z" id="形状" fill="#34332E"></path>
                </g>
                <rect id="矩形备份-8" x="0" y="0" width="16" height="16"></rect>
            </g>
        </g>
    </g>
</svg>