<?xml version="1.0" encoding="UTF-8"?>
<svg width="16px" height="16px" viewBox="0 0 16 16" version="1.1" xmlns="http://www.w3.org/2000/svg" xmlns:xlink="http://www.w3.org/1999/xlink">
    <title>home_icon_qualification_strength</title>
    <g id="页面-1" stroke="none" stroke-width="1" fill="none" fill-rule="evenodd">
        <g id="0" transform="translate(-28.000000, -647.000000)">
            <g id="home_icon_qualification_strength" transform="translate(28.000000, 647.000000)">
                <rect id="矩形备份-11" x="0" y="0" width="16" height="16"></rect>
                <g id="ziliao" transform="translate(0.000000, 0.500000)" fill-rule="nonzero">
                    <path d="M15.299219,10.8781588 L0.818744142,10.8781588 L0.818744142,13.1186576 C0.818744142,13.7732971 1.4995314,14.303575 2.33926898,14.303575 L13.7786942,14.303575 C14.6184317,14.303575 15.299219,13.7732971 15.299219,13.1186576 L15.299219,10.8781588 Z" id="路径" fill-opacity="0.502160559" fill="#165DFF"></path>
                    <path d="M14.2275539,6.80208264 L14.2275539,2.44942628 C14.2275539,1.09836174 13.1228991,0 11.7653233,0 L4.23267729,0 C2.87510153,0 1.77144642,1.09935664 1.77144642,2.44942628 L1.77144642,6.80208264 C0.761761949,7.01001526 0,7.90243417 0,8.96796445 L0,12.7883531 C0,14.0080918 0.996688535,15 2.22230553,15 L13.7776945,15 C15.0033115,15 16,14.0080918 16,12.7883531 L16,8.96796445 C15.9990003,7.90143928 15.2372384,7.01001526 14.2275539,6.80208264 Z M4.23267729,1.39185514 L11.7653233,1.39185514 C12.3511403,1.39185514 12.8279913,1.86641905 12.8279913,2.44843139 L12.8279913,6.75532268 L11.4664167,6.75532268 C10.9265854,6.75532268 10.4327398,7.0458314 10.1778194,7.51243616 C9.74295533,8.30934536 8.90821618,8.80480202 7.99950016,8.80480202 C7.09078413,8.80480202 6.2550453,8.30934536 5.82018119,7.51243616 C5.56526086,7.04483651 5.07141518,6.75532268 4.53158388,6.75532268 L3.17100906,6.75532268 L3.17100906,2.44942628 C3.17100906,1.86641905 3.64686036,1.39185514 4.23267729,1.39185514 Z M14.5994377,12.7883531 C14.5994377,13.2400345 14.230553,13.60715 13.7766948,13.60715 L2.22230553,13.60715 C1.76844736,13.60715 1.39956264,13.2400345 1.39956264,12.7883531 L1.39956264,8.96796445 C1.39956264,8.51628308 1.76844736,8.14916761 2.22230553,8.14916761 L4.53258357,8.14916761 C4.55757576,8.14916761 4.58156826,8.16110632 4.59056545,8.1780195 C5.27035301,9.42462028 6.57594502,10.1986469 7.99950016,10.1986469 C9.4230553,10.1986469 10.7286473,9.42462028 11.4084349,8.1780195 C11.4174321,8.16110632 11.4414246,8.14916761 11.4664167,8.14916761 L13.7766948,8.14916761 C14.230553,8.14916761 14.5994377,8.51628308 14.5994377,8.96796445 L14.5994377,12.7883531 L14.5994377,12.7883531 Z" id="形状" fill="#34332E"></path>
                    <path d="M6.16107466,4.08403529 L9.86191815,4.08403529 C10.2487973,4.08403529 10.5616995,3.77263381 10.5616995,3.38761027 C10.5616995,3.00258672 10.2487973,2.69118525 9.86191815,2.69118525 L6.16107466,2.69118525 C5.77419556,2.69118525 5.46129335,3.00258672 5.46129335,3.38761027 C5.46129335,3.77263381 5.77519525,4.08403529 6.16107466,4.08403529 Z" id="路径" fill="#34332E"></path>
                </g>
            </g>
        </g>
    </g>
</svg>