<?xml version="1.0" encoding="UTF-8"?>
<svg width="26px" height="26px" viewBox="0 0 26 26" version="1.1" xmlns="http://www.w3.org/2000/svg" xmlns:xlink="http://www.w3.org/1999/xlink">
    <title>log_in_button_exit</title>
    <g id="页面-1" stroke="none" stroke-width="1" fill="none" fill-rule="evenodd">
        <g id="兑换码激活——输入" transform="translate(-303.000000, -233.000000)">
            <g id="顶部操作区" transform="translate(31.000000, 222.000000)">
                <g id="log_in_button_exit" transform="translate(272.000000, 11.000000)">
                    <rect id="矩形" x="0" y="1.8189894e-12" width="26" height="26"></rect>
                    <path d="M12.7279221,3.72792206 C13.2802068,3.72792206 13.7279221,4.17563731 13.7279221,4.72792206 L13.7279221,11.7269221 L20.7279221,11.7279221 C21.2802068,11.7279221 21.7279221,12.1756373 21.7279221,12.7279221 C21.7279221,13.2802068 21.2802068,13.7279221 20.7279221,13.7279221 L13.7269221,13.7269221 L13.7279221,20.7279221 C13.7279221,21.2802068 13.2802068,21.7279221 12.7279221,21.7279221 C12.1756373,21.7279221 11.7279221,21.2802068 11.7279221,20.7279221 L11.7269221,13.7269221 L4.72792206,13.7279221 C4.17563731,13.7279221 3.72792206,13.2802068 3.72792206,12.7279221 C3.72792206,12.1756373 4.17563731,11.7279221 4.72792206,11.7279221 L11.7279221,11.7269221 L11.7279221,4.72792206 C11.7279221,4.17563731 12.1756373,3.72792206 12.7279221,3.72792206 Z" id="形状结合" fill="#222222" transform="translate(12.727922, 12.727922) rotate(-45.000000) translate(-12.727922, -12.727922) "></path>
                </g>
            </g>
        </g>
    </g>
</svg>