<?xml version="1.0" encoding="UTF-8"?>
<svg width="36px" height="36px" viewBox="0 0 36 36" version="1.1" xmlns="http://www.w3.org/2000/svg" xmlns:xlink="http://www.w3.org/1999/xlink">
    <title>log_in_way_icon_phone</title>
    <g id="流程" stroke="none" stroke-width="1" fill="none" fill-rule="evenodd">
        <g id="切图" transform="translate(-78.000000, -143.000000)" fill-rule="nonzero">
            <g id="编组" transform="translate(78.068749, 143.075771)">
                <g id="微信备份" fill="#1D8EFE">
                    <path d="M17.9106604,0 C8.01908299,0 0,8.01867786 0,17.910292 C0,27.8022745 8.01908299,35.8209524 17.9106604,35.8209524 C27.8022377,35.8209524 35.8209524,27.8022745 35.8209524,17.910292 C35.8209524,8.01871469 27.8024955,0 17.9106604,0" id="形状"></path>
                </g>
                <g id="编组-7" transform="translate(11.931251, 7.924229)">
                    <path d="M12,16.6321413 C12,17.9394833 10.9343389,19 9.59989162,19 L2.40010838,19 C1.07406069,19 0,17.9372646 0,16.6321413 L0,2.36785871 C0,1.06051671 1.06430636,0 2.40010838,0 L9.59989162,0 C10.9259393,0 12,1.06273537 12,2.36785871 L12,16.6321413 Z" id="路径" fill="#FFFFFF"></path>
                    <path d="M6,15.437396 C5.33751806,15.437396 4.79994581,15.9693183 4.79994581,16.6249307 C4.79994581,17.280543 5.33751806,17.8124653 6,17.8124653 C6.66248194,17.8124653 7.19978324,17.2802657 7.19978324,16.6249307 C7.19978324,15.9695957 6.66248194,15.437396 6,15.437396 Z M9.36953573,1.61192162 L2.63048187,1.61192162 C2.02016681,1.61192162 1.51195094,2.10720655 1.51195094,2.71788509 L1.51195094,13.8257517 L10.48832,13.8257517 L10.48832,2.71788509 C10.48832,2.10590999 9.98770458,1.61192162 9.36953573,1.61192162 L9.36953573,1.61192162 Z" id="形状" fill="#1D8EFE"></path>
                </g>
            </g>
        </g>
    </g>
</svg>