<?xml version="1.0" encoding="UTF-8"?>
<svg width="36px" height="36px" viewBox="0 0 36 36" version="1.1" xmlns="http://www.w3.org/2000/svg" xmlns:xlink="http://www.w3.org/1999/xlink">
    <title>log_in_way_icon_weixin</title>
    <g id="流程" stroke="none" stroke-width="1" fill="none" fill-rule="evenodd">
        <g id="切图" transform="translate(-119.000000, -143.000000)" fill-rule="nonzero">
            <g id="微信" transform="translate(119.068749, 143.075771)">
                <path d="M17.9106604,0 C8.01908299,0 0,8.01867786 0,17.910292 C0,27.8022745 8.01908299,35.8209524 17.9106604,35.8209524 C27.8022377,35.8209524 35.8209524,27.8022745 35.8209524,17.910292 C35.8209524,8.01871469 27.8024955,0 17.9106604,0" id="形状" fill="#00B96B"></path>
                <g id="Group-4" transform="translate(8.931251, 9.924229)" fill="#FFFFFF">
                    <path d="M13.2763907,5.18598595 C16.2926898,5.18598595 19,7.44709005 19,10.2489232 C19,11.8217979 17.9787748,13.2226137 16.6489623,14.2302845 L17.1239114,16 L15.3187362,14.9432989 L15.0249287,15.0100841 L15.0249287,15.0100841 L14.4426577,15.1501555 C14.0557521,15.2395432 13.6699298,15.3117675 13.2763907,15.3117675 C10.0938167,15.3117675 7.57643225,13.0507688 7.57643225,10.2489232 C7.57643225,7.44708075 10.0938377,5.18598595 13.2763907,5.18598595 Z M6.74502931,0 C10.0224462,0 12.9441122,2.0152485 13.5138893,4.86664242 C13.2764117,4.81708976 13.06257,4.79263107 12.8726683,4.79263107 C9.64252294,4.79263107 7.14884918,7.29959388 7.14884918,10.3225132 C7.14884918,10.8387922 7.22006172,11.3056254 7.33874938,11.7974451 C7.1489517,11.821798 6.93510936,11.821798 6.74500383,11.8217979 C5.86633529,11.8218182 5.2250124,11.674325 4.39358698,11.4282544 L1.99487006,12.6820011 L2.68387221,10.5682825 C0.997484491,9.33963112 0,7.79111028 0,5.89846231 C0,2.55599 3.04003981,0 6.74502931,0 Z M11.4236745,7.9876471 C11.0913495,7.9876471 10.7588207,8.30709157 10.7588207,8.7004444 C10.7588207,9.0197834 11.0911457,9.33912239 11.4236745,9.33912239 C11.922673,9.33912239 12.2788376,9.01967793 12.2788376,8.7004444 C12.2788376,8.30720014 11.922673,7.9876471 11.4236745,7.9876471 Z M15.1524883,7.98759269 C14.7963237,7.98759269 14.4875296,8.30703716 14.4875296,8.70038999 C14.4875296,9.01972899 14.7963207,9.33906798 15.1524883,9.33906798 C15.6275453,9.33906798 15.9837099,9.01962352 15.9837099,8.70038999 C15.9837099,8.30714573 15.6275453,7.98759269 15.1524883,7.98759269 Z M9.23890271,2.94925287 C8.740108,2.94925287 8.26505101,3.26891137 8.26505101,3.80943573 C8.26505101,4.32582028 8.740108,4.66961858 9.23890271,4.66961858 C9.76143512,4.66961858 10.093862,4.32571481 10.093862,3.80943573 C10.093862,3.26890827 9.76143512,2.94925287 9.23890271,2.94925287 Z M4.53628453,2.9490992 C4.03748983,2.9490992 3.51516125,3.2687577 3.51516125,3.80928205 C3.51516125,4.32556114 4.03748983,4.66978442 4.53628453,4.66978442 C5.01134152,4.66978442 5.39124383,4.32556424 5.39124383,3.80928205 C5.39124383,3.2687546 5.01134152,2.9490992 4.53628453,2.9490992 Z" id="Combined-Shape"></path>
                </g>
            </g>
        </g>
    </g>
</svg>