<?xml version="1.0" encoding="UTF-8"?>
<svg width="24px" height="24px" viewBox="0 0 24 24" version="1.1" xmlns="http://www.w3.org/2000/svg" xmlns:xlink="http://www.w3.org/1999/xlink">
    <title>nav_icon_qingmiao</title>
    <g id="页面-1" stroke="none" stroke-width="1" fill="none" fill-rule="evenodd">
        <g id="0" transform="translate(-82.000000, -744.000000)">
            <g id="nav_icon_qingmiao" transform="translate(82.000000, 744.000000)">
                <rect id="矩形" x="0" y="0" width="24" height="24"></rect>
                <g id="home" transform="translate(1.500000, 1.500000)" fill="#165DFF" fill-rule="nonzero">
                    <path d="M21,9.40228816 L21,16.0248138 C21,18.7725333 18.7732022,21 16.0263134,21 L13.2631566,21 L13.2631566,16.0248138 C13.2631566,14.498303 12.0260492,13.2608214 10.5,13.2608214 C8.97395054,13.2608214 7.73684312,14.498303 7.73684312,16.0248138 L7.73684312,21 L4.97368638,21 C2.22679757,21 0,18.7725333 0,16.0248138 L0,9.40228816 C-0.00195835655,7.89748001 0.680533098,6.47349762 1.85463502,5.53269889 L7.38094855,1.0904104 C9.20592031,-0.363470133 11.7929742,-0.363470133 13.617946,1.0904104 L19.1442595,5.53269889 C20.3190352,6.47307156 21.0020131,7.89722023 21,9.40228816 L21,9.40228816 Z" id="路径"></path>
                </g>
            </g>
        </g>
    </g>
</svg>