<?xml version="1.0" standalone="no"?><!DOCTYPE svg PUBLIC "-//W3C//DTD SVG 1.1//EN" "http://www.w3.org/Graphics/SVG/1.1/DTD/svg11.dtd"><svg t="1710574485422" class="icon" viewBox="0 0 1024 1024" version="1.1" xmlns="http://www.w3.org/2000/svg" p-id="56417" xmlns:xlink="http://www.w3.org/1999/xlink" width="36" height="36"><path d="M613.504 513.28H410.368a25.6 25.6 0 0 0 0 51.2h203.264a25.6 25.6 0 1 0 0-51.2zM613.504 418.176H410.368a25.6 25.6 0 0 0 0 51.2h203.264a25.6 25.6 0 0 0 0-51.2zM613.504 608.384H410.368a25.6 25.6 0 0 0 0 51.2h203.264a25.6 25.6 0 0 0 0-51.2z" fill="#FAC105" p-id="56418"></path><path d="M512 0A513.536 513.536 0 0 0 0 512a513.536 513.536 0 0 0 512 512 513.536 513.536 0 0 0 512-512A513.536 513.536 0 0 0 512 0z m-42.24 283.904h84.48a27.904 27.904 0 0 1 0 55.808h-84.48a27.904 27.904 0 0 1 0-55.808zM704 698.624a41.472 41.472 0 0 1-41.344 41.472H361.344A41.472 41.472 0 0 1 320 698.624V332.8a41.472 41.472 0 0 1 41.344-41.472h60.16a41.728 41.728 0 0 0 36.48 62.848h108.032a41.728 41.728 0 0 0 36.48-62.848h60.16A41.472 41.472 0 0 1 704 332.8z" fill="#FAC105" p-id="56419"></path></svg>