<svg width="40" height="40" viewBox="0 0 40 40" fill="none" xmlns="http://www.w3.org/2000/svg">
<circle cx="20" cy="20" r="20" fill="#FAF1CE"/>
<path d="M15.3037 15.2636H27.9854V27.9453H15.3037V15.2636Z" fill="url(#paint0_linear_1640_1143)"/>
<path fill-rule="evenodd" clip-rule="evenodd" d="M14.2891 15.2636C14.2891 14.7033 14.7433 14.2491 15.3036 14.2491H27.9853C28.5456 14.2491 28.9999 14.7033 28.9999 15.2636V27.9454C28.9999 28.5057 28.5456 28.9599 27.9853 28.9599H15.3036C14.7433 28.9599 14.2891 28.5057 14.2891 27.9454V15.2636ZM16.3181 16.2782V26.9308H26.9708V16.2782H16.3181Z" fill="#4D2A00"/>
<path fill-rule="evenodd" clip-rule="evenodd" d="M17.9435 21.1245C18.3397 20.7283 18.982 20.7283 19.3782 21.1245L20.6545 22.4007L23.9106 19.1447C24.3068 18.7485 24.9491 18.7485 25.3453 19.1447C25.7415 19.5409 25.7415 20.1832 25.3453 20.5795L21.3719 24.5529C20.9757 24.9491 20.3333 24.9491 19.9371 24.5529L17.9435 22.5592C17.5473 22.163 17.5473 21.5207 17.9435 21.1245Z" fill="#4D2A00"/>
<path fill-rule="evenodd" clip-rule="evenodd" d="M11 12.0546C11 11.4943 11.4542 11.0401 12.0145 11.0401H22.1599C22.7202 11.0401 23.1745 11.4943 23.1745 12.0546C23.1745 12.615 22.7202 13.0692 22.1599 13.0692H13.5291C13.2529 13.0692 13.0291 13.293 13.0291 13.5692V22.2C13.0291 22.7603 12.5749 23.2146 12.0145 23.2146C11.4542 23.2146 11 22.7603 11 22.2V12.0546Z" fill="#4D2A00"/>
<defs>
<linearGradient id="paint0_linear_1640_1143" x1="15.3037" y1="15.2636" x2="29.346" y2="17.0109" gradientUnits="userSpaceOnUse">
<stop stop-color="#FAF1CE"/>
<stop offset="1" stop-color="#F3DCA9"/>
</linearGradient>
</defs>
</svg>
