<svg width="40" height="40" viewBox="0 0 40 40" fill="none" xmlns="http://www.w3.org/2000/svg">
<circle cx="20" cy="20" r="20" fill="#FAF1CE"/>
<path d="M27.6783 26.5277H12.2797L11.9385 15.7564L19.979 11.0535L27.6783 15.7564V26.5277Z" fill="url(#paint0_linear_1640_1160)"/>
<path d="M12 25.75H28V26.75H27V15.75H28L27.47 16.598L19.47 11.598L20 10.75L20.53 11.598L12.53 16.598L12 15.75H13V26.75H12V25.75ZM12 27.75C11.4477 27.75 11 27.3023 11 26.75V15.75C11 15.4052 11.1776 15.0847 11.47 14.902L19.47 9.902C19.7943 9.69933 20.2057 9.69933 20.53 9.902L28.53 14.902C28.8224 15.0847 29 15.4052 29 15.75V26.75C29 27.3023 28.5523 27.75 28 27.75H12Z" fill="#4D2A00"/>
<path fill-rule="evenodd" clip-rule="evenodd" d="M16.6134 19.2929C17.0039 18.9024 17.637 18.9024 18.0276 19.2929L19.2856 20.5509L22.495 17.3415C22.8855 16.9509 23.5186 16.9509 23.9092 17.3415C24.2997 17.732 24.2997 18.3652 23.9092 18.7557L19.9927 22.6722C19.6021 23.0627 18.969 23.0627 18.5784 22.6722L16.6134 20.7071C16.2228 20.3166 16.2228 19.6834 16.6134 19.2929Z" fill="#4D2A00"/>
<defs>
<linearGradient id="paint0_linear_1640_1160" x1="11.9385" y1="11.0535" x2="29.3578" y2="13.2582" gradientUnits="userSpaceOnUse">
<stop stop-color="#FAF1CE"/>
<stop offset="1" stop-color="#F3DCA9"/>
</linearGradient>
</defs>
</svg>
