<svg width="254" height="88" viewBox="0 0 254 88" fill="none" xmlns="http://www.w3.org/2000/svg">
<g clip-path="url(#clip0_1607_4328)" filter="url(#filter0_d_1607_4328)">
<rect x="8" y="4" width="238" height="16" rx="8" fill="#333333"/>
<mask id="mask0_1607_4328" style="mask-type:alpha" maskUnits="userSpaceOnUse" x="16" y="12" width="222" height="64">
<rect x="16" y="12" width="222" height="64" fill="#D9D9D9"/>
</mask>
<g mask="url(#mask0_1607_4328)">
<path d="M17 16C17 9.85818 21.6285 5 27.1933 5H226.807C232.372 5 237 9.85818 237 16V33.0791C233.786 33.5935 231.403 36.5499 231.403 40C231.403 43.4501 233.786 46.4065 237 46.9209V64C237 70.1418 232.372 75 226.807 75H27.1933C21.6285 75 17 70.1418 17 64V46.9209C20.2141 46.4065 22.5966 43.4501 22.5966 40C22.5966 36.5499 20.2141 33.5935 17 33.0791V16Z" fill="url(#paint0_linear_1607_4328)" stroke="#FDD07E" stroke-width="2"/>
<line x1="127.25" y1="16" x2="127.25" y2="64" stroke="#4D2A00" stroke-width="0.5" stroke-dasharray="2 2"/>
</g>
</g>
<defs>
<filter id="filter0_d_1607_4328" x="0" y="0" width="254" height="88" filterUnits="userSpaceOnUse" color-interpolation-filters="sRGB">
<feFlood flood-opacity="0" result="BackgroundImageFix"/>
<feColorMatrix in="SourceAlpha" type="matrix" values="0 0 0 0 0 0 0 0 0 0 0 0 0 0 0 0 0 0 127 0" result="hardAlpha"/>
<feOffset dy="4"/>
<feGaussianBlur stdDeviation="4"/>
<feComposite in2="hardAlpha" operator="out"/>
<feColorMatrix type="matrix" values="0 0 0 0 0.905794 0 0 0 0 0.750536 0 0 0 0 0.449152 0 0 0 0.2 0"/>
<feBlend mode="normal" in2="BackgroundImageFix" result="effect1_dropShadow_1607_4328"/>
<feBlend mode="normal" in="SourceGraphic" in2="effect1_dropShadow_1607_4328" result="shape"/>
</filter>
<linearGradient id="paint0_linear_1607_4328" x1="127" y1="4" x2="127" y2="76" gradientUnits="userSpaceOnUse">
<stop stop-color="#FAF1CE"/>
<stop offset="0.305" stop-color="white"/>
</linearGradient>
<clipPath id="clip0_1607_4328">
<rect width="238" height="72" fill="white" transform="translate(8 4)"/>
</clipPath>
</defs>
</svg>
