<svg width="270" height="80" viewBox="0 0 270 80" fill="none" xmlns="http://www.w3.org/2000/svg">
<g clip-path="url(#clip0_1607_4333)">
<path d="M0 14C0 6.26801 6.26801 0 14 0H256C263.732 0 270 6.26801 270 14V80H0V14Z" fill="url(#paint0_linear_1607_4333)"/>
<mask id="mask0_1607_4333" style="mask-type:alpha" maskUnits="userSpaceOnUse" x="31" y="-110" width="299" height="299">
<g style="mix-blend-mode:overlay" opacity="0.2">
<path d="M235.914 53.785L268.05 -14.1854L256.654 -18.4391C231.373 -27.8755 212.246 -17.1565 200.916 7.33419L196.044 17.7393C195.165 19.6162 195.137 21.7805 195.967 23.6797L208.027 51.291C213.442 62.9972 229.628 64.5454 235.914 53.785Z" fill="white"/>
<path d="M222.991 83.713L213.992 102.665C200.652 131.499 159.667 131.499 146.327 102.665L92.9512 -12.7106L104.347 -16.9643C129.628 -26.4007 153.222 -10.2713 164.552 14.2194L175.47 37.8204L175.484 37.7896L189.055 67.1237C195.009 79.9927 210.936 85.0663 222.991 83.713Z" fill="white"/>
</g>
</mask>
<g mask="url(#mask0_1607_4333)">
<path d="M0 14C0 6.26801 6.26801 0 14 0H256C263.732 0 270 6.26801 270 14V80H0V14Z" fill="white"/>
</g>
<path d="M211 13L211.977 17.336C212.278 18.6755 213.325 19.7215 214.664 20.0233L219 21L214.664 21.9767C213.325 22.2785 212.278 23.3245 211.977 24.664L211 29L210.023 24.664C209.722 23.3245 208.675 22.2785 207.336 21.9767L203 21L207.336 20.0233C208.675 19.7215 209.722 18.6755 210.023 17.336L211 13Z" fill="#FDD07E"/>
<path opacity="0.5" d="M224 29L224.733 32.252C224.959 33.2566 225.743 34.0411 226.748 34.2675L230 35L226.748 35.7325C225.743 35.9589 224.959 36.7434 224.733 37.748L224 41L223.267 37.748C223.041 36.7434 222.257 35.9589 221.252 35.7325L218 35L221.252 34.2675C222.257 34.0411 223.041 33.2566 223.267 32.252L224 29Z" fill="#FDD07E"/>
<path d="M44 47L44.9767 51.336C45.2785 52.6755 46.3245 53.7215 47.664 54.0233L52 55L47.664 55.9767C46.3245 56.2785 45.2785 57.3245 44.9767 58.664L44 63L43.0233 58.664C42.7215 57.3245 41.6755 56.2785 40.336 55.9767L36 55L40.336 54.0233C41.6755 53.7215 42.7215 52.6755 43.0233 51.336L44 47Z" fill="#FDD07E"/>
<path opacity="0.5" d="M78 14L78.7325 17.252C78.9589 18.2566 79.7434 19.0411 80.748 19.2675L84 20L80.748 20.7325C79.7434 20.9589 78.9589 21.7434 78.7325 22.748L78 26L77.2675 22.748C77.0411 21.7434 76.2566 20.9589 75.252 20.7325L72 20L75.252 19.2675C76.2566 19.0411 77.0411 18.2566 77.2675 17.252L78 14Z" fill="#FDD07E"/>
</g>
<defs>
<linearGradient id="paint0_linear_1607_4333" x1="0" y1="0" x2="258.08" y2="108.383" gradientUnits="userSpaceOnUse">
<stop stop-color="#FAF1CE"/>
<stop offset="1" stop-color="#F3DCA9"/>
</linearGradient>
<clipPath id="clip0_1607_4333">
<rect width="270" height="80" fill="white"/>
</clipPath>
</defs>
</svg>
