<svg width="24" height="24" viewBox="0 0 24 24" fill="none" xmlns="http://www.w3.org/2000/svg">
<path d="M10.376 2.72207L5.37819 4.94333C3.93257 5.58583 2.97858 7.02467 3.07057 8.60396C3.4302 14.7782 5.23825 17.4963 9.93637 20.677C11.181 21.5196 12.8215 21.5217 14.0652 20.6777C18.7778 17.4797 20.5211 14.7231 20.9124 8.62535C21.0144 7.03561 20.0588 5.5815 18.6031 4.93452L13.6251 2.72207C12.5909 2.2624 11.4103 2.2624 10.376 2.72207Z" fill="#333333"/>
<path fill-rule="evenodd" clip-rule="evenodd" d="M15.4939 9.43558C15.8056 9.70834 15.8372 10.1822 15.5645 10.4939L12.6946 13.7738C12.0779 14.4786 11.0156 14.5729 10.2843 13.9879L8.53151 12.5857C8.20806 12.3269 8.15562 11.8549 8.41438 11.5315C8.67313 11.208 9.1451 11.1556 9.46855 11.4144L11.2214 12.8166C11.3258 12.9002 11.4776 12.8867 11.5657 12.786L14.4356 9.50613C14.7084 9.1944 15.1822 9.16282 15.4939 9.43558Z" fill="url(#paint0_linear_1474_2013)"/>
<defs>
<linearGradient id="paint0_linear_1474_2013" x1="8.06127" y1="11.8107" x2="15.75" y2="11.8107" gradientUnits="userSpaceOnUse">
<stop stop-color="#FAE4B2"/>
<stop offset="1" stop-color="#FDD07E"/>
</linearGradient>
</defs>
</svg>
