<?xml version="1.0" encoding="UTF-8"?>
<svg width="46px" height="46px" viewBox="0 0 46 46" version="1.1" xmlns="http://www.w3.org/2000/svg" xmlns:xlink="http://www.w3.org/1999/xlink">
    <title>home_button_add_to_picture</title>
    <g id="页面-1" stroke="none" stroke-width="1" fill="none" fill-rule="evenodd">
        <g id="0" transform="translate(-165.000000, -234.000000)">
            <g id="home_button_add_to_picture" transform="translate(165.000000, 234.000000)">
                <rect id="矩形备份-2" fill="#E7F0FE" x="0" y="0" width="46" height="46" rx="16"></rect>
                <path d="M23,16 C23.5522847,16 24,16.4477153 24,17 L24,22 L29,22 C29.5522847,22 30,22.4477153 30,23 C30,23.5522847 29.5522847,24 29,24 L24,24 L24,29 C24,29.5522847 23.5522847,30 23,30 C22.4477153,30 22,29.5522847 22,29 L22,24 L17,24 C16.4477153,24 16,23.5522847 16,23 C16,22.4477153 16.4477153,22 17,22 L22,22 L22,17 C22,16.4477153 22.4477153,16 23,16 Z" id="形状结合" fill="#165DFF"></path>
            </g>
        </g>
    </g>
</svg>