<?xml version="1.0" encoding="UTF-8"?>
<svg width="13px" height="14px" viewBox="0 0 13 14" version="1.1" xmlns="http://www.w3.org/2000/svg" xmlns:xlink="http://www.w3.org/1999/xlink">
    <title>减去顶层备份</title>
    <g id="页面-1" stroke="none" stroke-width="1" fill="none" fill-rule="evenodd">
        <g id="我的" transform="translate(-32.000000, -189.000000)" fill="#F8DC9F" fill-rule="nonzero">
            <g id="编组" transform="translate(16.000000, 168.000000)">
                <path d="M22.5,21 C22.6878615,21 22.861807,21.0795044 22.9940059,21.2168302 C22.9940059,21.2168302 25.512734,23.8332474 25.512734,23.8332474 C25.6797216,23.9994839 25.90933,24.0789883 26.1389371,24.0283945 C26.1389371,24.0283945 28.1706203,23.6091895 28.1706203,23.6091895 C28.3793524,23.5658233 28.602003,23.6308725 28.7620327,23.775426 C28.9220637,23.9199791 29.0125147,24.1368095 28.9985977,24.3608675 C28.9985977,24.3608675 28.5880872,31.5957661 28.5880872,31.5957661 C28.4837205,33.5038714 26.9599593,35 25.1161393,35 L25.1161393,35 L19.8838623,35 C18.0400416,35 16.5093225,33.5110991 16.4049553,31.5957661 C16.4049553,31.5957661 16.001402,24.3608675 16.001402,24.3608675 C15.9874864,24.1368095 16.077938,23.9199791 16.2379677,23.775426 C16.3979974,23.6308725 16.6206475,23.5658233 16.8293819,23.6091895 C16.8293819,23.6091895 18.854106,24.0283945 18.854106,24.0283945 C19.0837134,24.0789883 19.320279,24.0067113 19.4872669,23.8332474 C19.4872669,23.8332474 22.0059961,21.2168302 22.0059961,21.2168302 C22.1381943,21.0795044 22.3121398,21 22.5,21 Z M24.9448345,27.0592092 C24.6889212,26.8197789 24.2873659,26.833141 24.0479356,27.0890542 L24.0479356,27.0890542 L22.6578569,28.5746772 L21.2677016,27.089054 C21.2580869,27.0787774 21.2481331,27.0688236 21.2378565,27.0592089 C20.9819429,26.8197783 20.5803871,26.8331404 20.3409565,27.089054 C20.0802057,27.3677555 20.0802057,27.8008971 20.3409565,28.0795986 L20.3409565,28.0795986 L22.1944451,30.060686 L22.1944451,30.060686 L22.2242902,30.0905311 C22.352247,30.2102464 22.5166143,30.2667636 22.6789213,30.2613627 L22.6789213,30.2613627 L22.7757509,30.2507017 C22.9037059,30.2266082 23.025418,30.1630511 23.1211902,30.0606858 L23.1211902,30.0606858 L24.9746796,28.0795975 C25.23543,27.8008964 25.23543,27.3677554 24.9746796,27.0890542 C24.9650649,27.0787777 24.955111,27.0688238 24.9448345,27.0592092 Z" id="减去顶层备份"></path>
            </g>
        </g>
    </g>
</svg>