<svg width="20" height="20" viewBox="0 0 20 20" fill="none" xmlns="http://www.w3.org/2000/svg">
<g id="Frame 9068">
<rect width="20" height="20" rx="10" fill="#333333"/>
<g id="Subtract">
<path d="M13.7063 10.9555L15.8559 6.40901L15.0936 6.12448C13.4026 5.49328 12.1231 6.21027 11.3653 7.84844L11.0269 8.57123C10.9761 8.67974 10.9744 8.80487 11.0224 8.91468L11.8409 10.7887C12.2032 11.5717 13.2858 11.6753 13.7063 10.9555Z" fill="#F9DCA0"/>
<path d="M12.8419 12.9574L12.2399 14.2251C11.3476 16.1538 8.60614 16.1538 7.71387 14.2251L4.14355 6.50766L4.90583 6.22313C6.59686 5.59193 8.17502 6.67082 8.93289 8.309L9.66322 9.88766L9.66418 9.88559L10.5719 11.8477C10.9702 12.7085 12.0355 13.0479 12.8419 12.9574Z" fill="#F9DCA0"/>
</g>
</g>
</svg>
