<?xml version="1.0" standalone="no"?><!DOCTYPE svg PUBLIC "-//W3C//DTD SVG 1.1//EN" "http://www.w3.org/Graphics/SVG/1.1/DTD/svg11.dtd"><svg t="1710737363621" class="icon" viewBox="0 0 1024 1024" version="1.1" xmlns="http://www.w3.org/2000/svg" p-id="4328" xmlns:xlink="http://www.w3.org/1999/xlink" width="72" height="72"><path d="M516.906667 533.973333m-469.333334 0a469.333333 469.333333 0 1 0 938.666667 0 469.333333 469.333333 0 1 0-938.666667 0Z" fill="#d81e06" p-id="4329" data-spm-anchor-id="a313x.search_index.0.i0.72983a81e0aoPe" class="selected"></path><path d="M313.386667 434.773333c28.586667 20.48 53.76 39.68 75.093333 57.6-10.453333 11.946667-18.986667 21.76-25.6 29.226667-26.453333-24.32-50.133333-44.8-71.253333-61.44l21.76-25.386667z m36.906666 136.533334c11.733333 5.12 23.68 9.813333 36.48 14.08-13.866667 57.6-27.946667 117.973333-42.453333 180.906666l-39.253333-12.8c18.773333-60.8 33.92-121.386667 45.226666-182.186666z m-17.92-256c20.48 15.786667 43.093333 34.986667 68.053334 57.6-2.133333 2.133333-11.093333 11.306667-26.453334 27.306666-20.693333-21.12-42.453333-41.386667-64.64-61.013333l23.04-23.893333z m61.44 78.293333h170.026667v32.213333h-96.853333c-0.213333 26.026667-0.64 49.92-1.28 71.893334h87.04c-2.133333 90.666667-4.693333 158.08-7.466667 202.24-2.133333 37.12-20.053333 55.68-53.333333 55.68-13.226667 0-27.093333-0.213333-41.6-0.426667-1.92-10.453333-4.48-22.4-7.466667-35.84 13.44 1.493333 27.306667 2.346667 41.173333 2.346667 17.066667 0 26.24-9.386667 27.946667-28.373334 2.56-33.706667 4.693333-88.533333 6.613333-164.48h-53.76c-1.493333 112.426667-24.533333 193.28-68.906666 242.346667-9.173333-10.666667-17.493333-20.266667-24.96-28.373333 26.24-31.573333 42.88-68.266667 50.133333-110.506667 7.466667-36.48 11.733333-105.173333 12.373333-206.506667h-39.253333v-32.213333z m47.146667-72.32l30.72-17.066667c14.08 20.693333 27.306667 42.24 39.253333 64.213334l-31.146666 17.066666a842.453333 842.453333 0 0 0-38.826667-64.213333z m121.813333 247.68h86.826667V544l56.106667-59.093333h-116.266667v-27.306667c-6.613333 11.093333-13.653333 21.973333-21.333333 32.64-6.826667-8.106667-15.146667-17.066667-24.533334-26.453333a386.133333 386.133333 0 0 0 65.706667-158.72l35.413333 5.76c-4.693333 22.613333-10.666667 44.373333-17.92 65.28h135.04v32.213333H614.4c-6.826667 15.573333-14.293333 30.506667-22.4 44.8h156.586667v34.56l-65.28 65.706667v16h81.706666v32.213333h-81.706666v109.653333c0 33.28-17.066667 50.133333-50.986667 50.133334-14.72 0-30.933333-0.213333-48.64-0.426667-1.28-10.453333-3.2-22.4-5.76-35.84 20.053333 1.92 36.906667 2.773333 50.133333 2.773333 14.08 0 21.333333-7.893333 21.333334-23.68V601.6h-86.826667v-32.64z" fill="#FFFFFF" p-id="4330"></path></svg>