<svg width="24" height="24" viewBox="0 0 24 24" fill="none" xmlns="http://www.w3.org/2000/svg">
<g id="Vector">
<path id="Vector_2" fill-rule="evenodd" clip-rule="evenodd" d="M21.313 7.38566L9.21707 14.4245L9.14491 14.4745C9.0461 14.5217 8.93801 14.5464 8.82849 14.5466C8.70323 14.5458 8.58048 14.5114 8.47306 14.447C8.36565 14.3825 8.27751 14.2904 8.21787 14.1803L8.17346 14.0803L6.24721 9.88923C6.23609 9.84176 6.23609 9.79237 6.24721 9.7449C6.2457 9.69976 6.25338 9.65479 6.26979 9.61272C6.2862 9.57064 6.311 9.53235 6.34267 9.50016C6.37434 9.46796 6.41223 9.44255 6.45403 9.42546C6.49583 9.40836 6.54068 9.39995 6.58583 9.40073C6.66486 9.40507 6.74139 9.42994 6.80787 9.47289L9.07274 11.0661C9.25096 11.1728 9.45355 11.232 9.66117 11.2382C9.7854 11.2364 9.90805 11.21 10.022 11.1604L20.6358 6.40866C19.5548 5.19916 18.2241 4.23873 16.7357 3.59372C15.2473 2.9487 13.6366 2.63447 12.0149 2.67274C6.225 2.67274 1.50098 6.6196 1.50098 11.4935C1.53465 12.8115 1.88084 14.1027 2.51103 15.2608C3.14123 16.4189 4.03743 17.4108 5.12588 18.1549C5.21359 18.2193 5.28561 18.3026 5.33656 18.3988C5.38751 18.4949 5.41606 18.6013 5.42009 18.71C5.41619 18.7863 5.39929 18.8614 5.37013 18.9321C5.20359 19.5926 4.90938 20.6696 4.90938 20.7195C4.87954 20.8073 4.86271 20.8989 4.85942 20.9915C4.85864 21.0367 4.86706 21.0815 4.88415 21.1233C4.90124 21.1651 4.92666 21.203 4.95885 21.2347C4.99104 21.2664 5.02934 21.2912 5.07141 21.3076C5.11349 21.324 5.15846 21.3317 5.20359 21.3302C5.27534 21.3327 5.34518 21.3067 5.39788 21.258L7.68496 19.9091C7.85318 19.8072 8.04376 19.7482 8.24007 19.737C8.34693 19.7432 8.45292 19.7599 8.55649 19.7869C9.67029 20.1152 10.8259 20.2798 11.9871 20.2754C17.7825 20.2754 22.501 16.3341 22.501 11.4547C22.4882 10.0147 22.0771 8.60631 21.313 7.38566Z" fill="#22AC38"/>
</g>
</svg>
